name Walk3.mot
datacolumns 19
datarows 10
range 1.98600000 1.99500000
endheader

                time	   L_ground_force_vx	   L_ground_force_vy	   L_ground_force_vz	   L_ground_force_px	   L_ground_force_py	   L_ground_force_pz	   R_ground_force_vx	   R_ground_force_vy	   R_ground_force_vz	   R_ground_force_px	   R_ground_force_py	   R_ground_force_pz	   L_ground_torque_x	   L_ground_torque_y	   L_ground_torque_z	   R_ground_torque_x	   R_ground_torque_y	   R_ground_torque_z	
          1.98600000	          6.65780404	         43.28739336	         -4.85452594	          0.00059227	          0.00000000	          0.00012841	          0.00000000	          0.00000000	          0.00000000	          0.00000000	          0.00000000	          0.00000000	          0.00000000	          0.03178318	          0.00000000	          0.00000000	         -0.00000000	          0.00000000	
          1.98700000	          6.51077309	         48.55124613	         -5.22364645	         -0.01620743	          0.00000000	         -0.00304340	          0.00000000	          0.00000000	          0.00000000	          0.00000000	          0.00000000	          0.00000000	          0.00000000	          0.03124939	          0.00000000	          0.00000000	         -0.00000000	          0.00000000	
          1.98800000	          6.35809723	         53.99451979	         -5.59370629	         -0.03294601	          0.00000000	         -0.00620822	          0.00000000	          0.00000000	          0.00000000	          0.00000000	          0.00000000	          0.00000000	          0.00000000	          0.03049395	          0.00000000	          0.00000000	         -0.00000000	          0.00000000	
          1.98900000	          6.19924456	         59.61346923	         -5.96348060	         -0.04957371	          0.00000000	         -0.00935702	          0.00000000	          0.00000000	          0.00000000	          0.00000000	          0.00000000	          0.00000000	          0.00000000	          0.02949988	          0.00000000	          0.00000000	         -0.00000000	          0.00000000	
          1.99000000	          6.03358013	         65.40351395	         -6.33165849	         -0.06604064	          0.00000000	         -0.01248075	          0.00000000	          0.00000000	          0.00000000	          0.00000000	          0.00000000	          0.00000000	          0.00000000	          0.02824978	          0.00000000	          0.00000000	         -0.00000000	          0.00000000	
          1.99100000	          5.86035060	         71.35919293	         -6.69684320	         -0.08229807	          0.00000000	         -0.01557055	          0.00000000	          0.00000000	          0.00000000	          0.00000000	          0.00000000	          0.00000000	          0.00000000	          0.02672586	          0.00000000	          0.00000000	         -0.00000000	          0.00000000	
          1.99200000	          5.67865171	         77.47416885	         -7.05755797	         -0.09830042	          0.00000000	         -0.01861815	          0.00000000	          0.00000000	          0.00000000	          0.00000000	          0.00000000	          0.00000000	          0.00000000	          0.02491011	          0.00000000	          0.00000000	         -0.00000000	          0.00000000	
          1.99300000	          5.48738940	         83.74127310	         -7.41225457	         -0.11400659	          0.00000000	         -0.02161606	          0.00000000	          0.00000000	          0.00000000	          0.00000000	          0.00000000	          0.00000000	          0.00000000	          0.02278434	          0.00000000	          0.00000000	         -0.00000000	          0.00000000	
          1.99400000	          5.28524442	         90.15257999	         -7.75932144	         -0.12938002	          0.00000000	         -0.02455765	          0.00000000	          0.00000000	          0.00000000	          0.00000000	          0.00000000	          0.00000000	          0.00000000	          0.02033011	          0.00000000	          0.00000000	         -0.00000000	          0.00000000	
          1.99500000	          5.07064244	         96.69951066	         -8.09709147	         -0.14438847	          0.00000000	         -0.02743708	          0.00000000	          0.00000000	          0.00000000	          0.00000000	          0.00000000	          0.00000000	          0.00000000	          0.01752869	          0.00000000	          0.00000000	         -0.00000000	          0.00000000	
